<?xml version="1.0" standalone="no"?><!DOCTYPE svg PUBLIC "-//W3C//DTD SVG 1.1//EN" "http://www.w3.org/Graphics/SVG/1.1/DTD/svg11.dtd"><svg class="icon" width="200px" height="200.00px" viewBox="0 0 1024 1024" version="1.1" xmlns="http://www.w3.org/2000/svg"><path fill="#333333" d="M381.106087 169.924638v15.137391h113.678841v-15.137391h-113.678841z m10.091594 50.754782v15.137392h93.347247v-15.137392h-93.347247z m-20.776811 54.613334v15.434203h134.752463v-15.434203h-134.752463z m207.768116-96.315363h-33.836522v21.667247h33.836522v-21.667247z m-33.836522 36.062609v21.815652h33.836522v-21.815652h-33.836522z m33.836522 36.211014h-33.836522v7.123479h-14.84058v-93.94087h113.382029v93.94087h-14.84058v-7.123479h-35.023768v46.005798h-14.840579v-46.005798z m14.840579-14.395362h35.023768v-21.815652h-35.023768v21.815652z m35.023768-36.211014v-21.667247h-35.023768v21.667247h35.023768zM512 0a460.057971 460.057971 0 0 0-261.63942 838.492754c74.202899 51.496812 261.63942 178.086957 261.63942 178.086956s187.436522-126.590145 261.63942-178.086956A460.057971 460.057971 0 0 0 512 0z m0 801.391304C323.480116 801.391304 170.666667 648.577855 170.666667 460.057971S323.480116 118.724638 512 118.724638s341.333333 152.813449 341.333333 341.333333-152.813449 341.333333-341.333333 341.333333z"  /><path fill="#333333" d="M736.048232 629.849043c0.623304-1.884754 0.934957-3.858551 0.934956-5.832347V409.956174c0-10.150957-7.969391-18.372638-17.808695-18.372638h-99.135073V619.445797c0 3.650783-0.638145 7.153159-1.780869 10.418087h-11.620174a18.995942 18.995942 0 0 0 0.934956-5.832348v-293.991884c0-10.150957-7.984232-18.372638-17.808695-18.372638H434.235362c-9.839304 0-17.808696 8.221681-17.808695 18.372638v293.991884c0 2.033159 0.341333 4.006957 0.934956 5.832348h-11.635014a31.758841 31.758841 0 0 1-1.766029-10.418087V391.583536H307.2c-9.824464 0-17.808696 8.221681-17.808696 18.372638v214.060522c0 2.033159 0.341333 4.006957 0.934957 5.832347H259.710145V667.826087h504.57971v-37.977044h-28.241623zM317.291594 554.800232h25.525797V528.473043h-25.525797v26.327189z m0-46.228406h25.525797v-26.342029h-25.525797v26.342029z m0-44.714667h25.525797v-26.342029h-25.525797v26.342029z m39.772754 90.943073h25.525797V528.473043h-25.525797v26.327189z m0-46.228406h25.525797v-26.342029h-25.525797v26.342029z m0-44.714667h25.525797v-26.342029h-25.525797v26.342029z m119.615072 164.760116h74.944928v-96.463768h-74.944928v96.463768zM512 449.461797c-34.667594 0-62.775652-28.998493-62.775652-64.77913 0-35.765797 28.108058-64.76429 62.775652-64.76429 34.667594 0 62.775652 28.998493 62.775652 64.76429 0 35.780638-28.108058 64.77913-62.775652 64.77913z m136.533333 105.338435h25.525797V528.473043H648.533333v26.327189z m0-46.228406h25.525797v-26.342029H648.533333v26.342029z m0-44.714667h25.525797v-26.342029H648.533333v26.342029z m39.772754 90.943073h25.525797V528.473043h-25.525797v26.327189z m0-46.228406h25.525797v-26.342029h-25.525797v26.342029z m0-44.714667v-26.342029h25.525797v26.342029h-25.525797zM519.168 341.333333v22.51316H541.681159v29.176579h-22.513159V415.536232h-29.17658v-22.51316H467.478261v-29.176579h22.513159V341.333333h29.17658z"  /></svg>