<?xml version="1.0" standalone="no"?><!DOCTYPE svg PUBLIC "-//W3C//DTD SVG 1.1//EN" "http://www.w3.org/Graphics/SVG/1.1/DTD/svg11.dtd"><svg class="icon" width="200px" height="199.61px" viewBox="0 0 1026 1024" version="1.1" xmlns="http://www.w3.org/2000/svg"><path fill="#333333" d="M700.672 137.152 301.248 137.152l0 676.672 399.488 0L700.736 137.152zM375.424 492.864l98.24 0 0 98.24L375.424 591.104 375.424 492.864zM475.84 743.936 377.6 743.936l0-98.24 98.24 0L475.84 743.936zM390.72 313.92 390.72 263.68l85.12 0L475.84 178.56l50.176 0 0 85.12 82.944 0 0 50.24L526.016 313.92l0 85.184L475.84 399.104 475.84 313.92 390.72 313.92zM624.256 743.936 528.192 743.936l0-98.24 96.064 0L624.256 743.936zM624.256 591.104 526.016 591.104 526.016 492.864l98.24 0L624.256 591.104zM261.888 316.096 0 316.096l0 438.72 261.888 0L261.888 316.096zM111.296 663.168 39.296 663.168l0-74.24 72 0L111.296 663.168zM111.296 549.632 39.296 549.632C38.592 524.928 37.824 500.16 37.12 475.456l74.24 0L111.36 549.632zM111.296 433.984C86.592 434.688 61.824 435.456 37.12 436.16l0-74.24 74.24 0L111.36 433.984zM148.416 361.984l74.176 0 0 74.24L148.416 436.224 148.416 361.984zM222.656 475.456l0 74.176L150.592 549.632 150.592 475.456 222.656 475.456zM224.832 663.168l-74.24 0 0-74.24 74.24 0L224.832 663.168zM739.968 316.096l0 438.72 285.952 0L1025.92 316.096 739.968 316.096zM790.144 361.984l72 0 0 74.24-72 0L790.144 361.984zM864.384 663.168 792.32 663.168l0-74.24 72.064 0L864.384 663.168zM864.384 549.632l-74.24 0L790.144 475.456l74.24 0L864.384 549.632zM975.68 663.168l-72.064 0 0-74.24 72.064 0L975.68 663.168zM975.68 549.632l-72.064 0L903.616 475.456l72.064 0L975.68 549.632zM975.68 436.16l-74.24 0 0-74.24 74.24 0L975.68 436.16zM0 879.232l1025.856 0 0-32.768L0 846.464 0 879.232z" /></svg>