<?xml version="1.0" standalone="no"?><!DOCTYPE svg PUBLIC "-//W3C//DTD SVG 1.1//EN" "http://www.w3.org/Graphics/SVG/1.1/DTD/svg11.dtd"><svg class="icon" width="200px" height="162.54px" viewBox="0 0 1260 1024" version="1.1" xmlns="http://www.w3.org/2000/svg"><path fill="#333333" d="M1188.233846 880.009846v0.157539h70.656v91.766153H0.315077v-91.766153h76.327385a43.165538 43.165538 0 0 1-2.363077-14.178462V238.355692c0-24.497231 19.849846-44.347077 44.347077-44.347077H359.975385v660.873847c0 8.743385 1.575385 17.329231 4.411077 25.127384h28.987076a43.165538 43.165538 0 0 1-2.363076-14.178461V45.056c0-24.576 19.771077-44.425846 44.347076-44.425846h388.017231c24.576 0 44.347077 19.849846 44.347077 44.347077v820.775384a46.08 46.08 0 0 1-2.363077 14.099693h29.144616a74.279385 74.279385 0 0 0 4.411077-25.206154V193.772308h247.335384c24.497231 0 44.347077 19.928615 44.347077 44.425846v627.633231a46.08 46.08 0 0 1-2.363077 14.178461z m-945.230769-575.015384v63.645538h63.645538v-63.724308h-63.724307z m0 107.992615v63.803077h63.645538v-63.803077h-63.724307z m0 111.773538v63.724308h63.645538v-63.803077h-63.724307z m-99.328-219.766153v63.645538h63.724308v-63.724308h-63.803077z m0 107.992615v63.803077h63.724308v-63.803077h-63.803077z m0 111.773538v63.724308h63.724308v-63.803077h-63.803077z m0 106.968616v63.724307h63.724308V631.729231h-63.803077z m65.299692 167.542154v-63.724308h-63.803077v63.803077h63.803077z m33.949539-167.542154v63.724307h63.803077V631.729231h-63.803077z m65.378461 167.542154v-63.724308h-63.803077v63.803077h63.803077z m419.84 77.74523V533.740308H541.223385v343.276307h186.919384zM629.366154 333.745231a156.435692 156.435692 0 0 0 156.593231-156.593231 156.435692 156.435692 0 1 0-313.186462 0c0 86.567385 70.104615 156.593231 156.593231 156.593231z m439.768615-28.829539v63.803077h63.724308v-63.803077h-63.724308z m0 108.071385v63.803077h63.724308v-63.803077h-63.724308z m0 111.773538v63.724308h63.724308v-63.803077h-63.724308z m-99.249231-219.766153v63.645538h63.724308v-63.724308h-63.803077z m0 107.992615v63.803077h63.724308v-63.803077h-63.803077z m0 111.773538v63.724308h63.724308v-63.803077h-63.803077z m0 106.968616v63.724307h63.724308V631.729231h-63.803077z m65.299693 167.542154v-63.724308h-63.803077v63.803077h63.803077z m33.949538-167.542154v63.724307h63.724308V631.729231h-63.724308z m65.142154 167.542154v-63.724308h-63.724308v63.803077h63.724308zM728.142769 138.318769v77.745231h-59.864615v59.864615h-77.745231v-59.864615h-59.943385v-77.745231h59.864616V78.375385h77.745231v59.864615h59.943384z"  /></svg>